<svg xmlns="http://www.w3.org/2000/svg" viewBox="-1196.002 2243.055 16.84 18.945">
  <defs>
    <style>
      .cls-1 {
        fill: #a90d00;
      }
    </style>
  </defs>
  <path id="Beta_Tester_Header" data-name="Beta Tester_Header" class="cls-1" d="M20.84,8.263H17.883A6.3,6.3,0,0,0,15.967,6.2l1.716-1.716L16.2,3,13.915,5.284a6.384,6.384,0,0,0-1.495-.179,6.229,6.229,0,0,0-1.484.179L8.642,3,7.158,4.484,8.863,6.2A6.38,6.38,0,0,0,6.958,8.263H4v2.105H6.2a6.987,6.987,0,0,0-.095,1.053v1.053H4v2.105H6.105V15.63A6.987,6.987,0,0,0,6.2,16.683H4v2.105H6.958a6.3,6.3,0,0,0,10.925,0H20.84V16.683h-2.2a6.987,6.987,0,0,0,.095-1.053V14.578H20.84V12.473H18.735V11.42a6.987,6.987,0,0,0-.095-1.053h2.2Zm-6.315,8.42h-4.21V14.578h4.21Zm0-4.21h-4.21V10.368h4.21Z" transform="translate(-1200.002 2240.055)"/>
</svg>
