<svg xmlns="http://www.w3.org/2000/svg" viewBox="-326.292 3904.077 24.972 28.094">
  <defs>
    <style>
      .cls-1 {
        fill: #fff;
      }
    </style>
  </defs>
  <path id="Betatester_Tile_White" class="cls-1" d="M28.972,10.8H24.587a9.341,9.341,0,0,0-2.841-3.059L24.29,5.2,22.089,3,18.7,6.387a9.467,9.467,0,0,0-2.216-.265,9.237,9.237,0,0,0-2.2.265L10.883,3l-2.2,2.2,2.528,2.544A9.462,9.462,0,0,0,8.386,10.8H4v3.122H7.262a10.36,10.36,0,0,0-.14,1.561v1.561H4v3.122H7.122v1.561a10.36,10.36,0,0,0,.14,1.561H4v3.122H8.386a9.348,9.348,0,0,0,16.2,0h4.386V23.29H25.71a10.36,10.36,0,0,0,.14-1.561V20.169h3.122V17.047H25.851V15.486a10.36,10.36,0,0,0-.14-1.561h3.262ZM19.608,23.29H13.365V20.169h6.243Zm0-6.243H13.365V13.925h6.243Z" transform="translate(-330.292 3901.077)"/>
</svg>
