<svg xmlns="http://www.w3.org/2000/svg" viewBox="-1030.194 494.769 67.224 75.627">
  <defs>
    <style>
      .cls-1 {
        fill: #78a1bb;
      }
    </style>
  </defs>
  <path id="Path_8" data-name="Path 8" class="cls-1" d="M71.224,24.007H59.418a25.145,25.145,0,0,0-7.647-8.235l6.848-6.848L52.7,3l-9.117,9.117a25.484,25.484,0,0,0-5.966-.714,24.865,24.865,0,0,0-5.924.714L22.529,3,16.6,8.924l6.806,6.848a25.47,25.47,0,0,0-7.6,8.235H4v8.4h8.781a27.889,27.889,0,0,0-.378,4.2v4.2H4v8.4h8.4v4.2a27.889,27.889,0,0,0,.378,4.2H4v8.4H15.806a25.164,25.164,0,0,0,43.612,0H71.224v-8.4H62.443a27.89,27.89,0,0,0,.378-4.2v-4.2h8.4v-8.4h-8.4v-4.2a27.89,27.89,0,0,0-.378-4.2h8.781ZM46.015,57.619H29.209v-8.4H46.015Zm0-16.806H29.209v-8.4H46.015Z" transform="translate(-1034.194 491.769)"/>
</svg>
