<svg xmlns="http://www.w3.org/2000/svg" viewBox="1190.984 -1106.066 38.274 24.356">
  <defs>
    <style>
      .cls-1 {
        fill: #fff;
      }
    </style>
  </defs>
  <path id="Path_6" data-name="Path 6" class="cls-1" d="M27.966,18.918a20.853,20.853,0,0,0-7.829,1.74,20.522,20.522,0,0,0-7.829-1.74C8.533,18.918,1,20.8,1,24.572v4.784H39.274V24.572C39.274,20.8,31.741,18.918,27.966,18.918Zm-6.959,7.829H3.61V24.572c0-.939,4.454-3.045,8.7-3.045s8.7,2.105,8.7,3.045Zm15.657,0H23.616V24.572a3.165,3.165,0,0,0-.9-2.122,16.784,16.784,0,0,1,5.254-.922c4.245,0,8.7,2.105,8.7,3.045ZM12.308,17.178a6.089,6.089,0,1,0-6.089-6.089A6.1,6.1,0,0,0,12.308,17.178Zm0-9.568a3.479,3.479,0,1,1-3.479,3.479A3.49,3.49,0,0,1,12.308,7.61Zm15.657,9.568a6.089,6.089,0,1,0-6.089-6.089A6.1,6.1,0,0,0,27.966,17.178Zm0-9.568a3.479,3.479,0,1,1-3.479,3.479A3.49,3.49,0,0,1,27.966,7.61Z" transform="translate(1189.984 -1111.066)"/>
</svg>
