<svg xmlns="http://www.w3.org/2000/svg" viewBox="-1292.44 499.802 100.33 63.846">
  <defs>
    <style>
      .cls-1 {
        fill: #78a1bb;
      }
    </style>
  </defs>
  <path id="Path_6" data-name="Path 6" class="cls-1" d="M71.687,41.484a54.664,54.664,0,0,0-20.522,4.56,53.8,53.8,0,0,0-20.522-4.56C20.747,41.484,1,46.409,1,56.305V68.846H101.33V56.305C101.33,46.409,81.583,41.484,71.687,41.484ZM53.445,62.006H7.841v-5.7c0-2.463,11.675-7.981,22.8-7.981s22.8,5.518,22.8,7.981Zm41.044,0h-34.2v-5.7a8.3,8.3,0,0,0-2.371-5.564,44,44,0,0,1,13.773-2.417c11.128,0,22.8,5.518,22.8,7.981ZM30.643,36.923A15.962,15.962,0,1,0,14.681,20.962,15.979,15.979,0,0,0,30.643,36.923Zm0-25.083a9.121,9.121,0,1,1-9.121,9.121A9.148,9.148,0,0,1,30.643,11.841ZM71.687,36.923A15.962,15.962,0,1,0,55.725,20.962,15.979,15.979,0,0,0,71.687,36.923Zm0-25.083a9.121,9.121,0,1,1-9.121,9.121A9.148,9.148,0,0,1,71.687,11.841Z" transform="translate(-1293.44 494.802)"/>
</svg>
