<svg xmlns="http://www.w3.org/2000/svg" viewBox="859.142 201.802 41.168 26.198">
  <defs>
    <style>
      .cls-1 {
        fill: #a90d00;
      }
    </style>
  </defs>
  <path id="Sales_pad_Header" class="cls-1" d="M30,19.97a22.43,22.43,0,0,0-8.421,1.871,22.074,22.074,0,0,0-8.421-1.871C9.1,19.97,1,21.991,1,26.052V31.2H42.168V26.052C42.168,21.991,34.065,19.97,30,19.97ZM22.52,28.391H3.807V26.052c0-1.01,4.79-3.275,9.356-3.275s9.356,2.264,9.356,3.275Zm16.841,0H25.326V26.052a3.4,3.4,0,0,0-.973-2.283A18.053,18.053,0,0,1,30,22.777c4.566,0,9.356,2.264,9.356,3.275ZM13.163,18.1a6.549,6.549,0,1,0-6.549-6.549A6.557,6.557,0,0,0,13.163,18.1Zm0-10.292a3.743,3.743,0,1,1-3.743,3.743A3.754,3.754,0,0,1,13.163,7.807ZM30,18.1a6.549,6.549,0,1,0-6.549-6.549A6.557,6.557,0,0,0,30,18.1ZM30,7.807a3.743,3.743,0,1,1-3.743,3.743A3.754,3.754,0,0,1,30,7.807Z" transform="translate(858.142 196.802)"/>
</svg>
